# xmcd
#
# Track frame offsets:
#	150
#	21147
#	49050
#	74721
#	95096
#	119055
#	151529
#	173458
#	227062
#	261512
#	293736
#	326988
#
# Disc length: 4717 seconds
# Revision: 0
# Processed by: cddbd v1.5.2PL0 Copyright (c) Steve Scherf et al.
# Submitted via: dBpowerAMP V12.0
#
DISCID=ae126b0c
DTITLE=Various Artist - Love Will Find Its Way, The Best of Robert Owens
DYEAR=1986
DGENRE=House
TTITLE0=Fingers Inc - All Over
TTITLE1=Robert Owens - I'm Strong
TTITLE2=Robert Owens - Picking Up the Pieces
TTITLE3=Robert Owens and Sensory Elements - Darkman
TTITLE4=Robert Owens - You'll Never Know
TTITLE5=Robert Owens - After the Rain
TTITLE6=Robert Owens - All Night Long
TTITLE7=Robert Owens - Ordinary People (Roach in the Bassbin Mix)
TTITLE8=Robert Owens - I'll Be Your Friend (Original Def Mix)
TTITLE9=Robert Owens - Was I Here Before (The Farley Sound Mix)
TTITLE10=Robert Owens - My Heart Is Your Home (Live)
TTITLE11=Robert Owens - Best Friend
EXTD=
EXTT0=
EXTT1=
EXTT2=
EXTT3=
EXTT4=
EXTT5=
EXTT6=
EXTT7=
EXTT8=
EXTT9=
EXTT10=
EXTT11=
PLAYORDER=
